# Blender v2.90.1 OBJ File: ''
# www.blender.org
mtllib Cone.mtl
o Torus
v 1.470000 0.000000 0.000000
v 1.401673 0.255000 0.000000
v 1.215000 0.441673 0.000000
v 0.960000 0.510000 0.000000
v 0.705000 0.441673 0.000000
v 0.518327 0.255000 0.000000
v 0.450000 0.000000 0.000000
v 0.518327 -0.255000 0.000000
v 0.705000 -0.441673 0.000000
v 0.960000 -0.510000 0.000000
v 1.215000 -0.441673 0.000000
v 1.401673 -0.255000 0.000000
v 1.189255 0.000000 -0.864044
v 1.133977 0.255000 -0.823883
v 0.982956 0.441673 -0.714159
v 0.776656 0.510000 -0.564274
v 0.570357 0.441673 -0.414389
v 0.419336 0.255000 -0.304665
v 0.364058 0.000000 -0.264504
v 0.419336 -0.255000 -0.304665
v 0.570357 -0.441673 -0.414389
v 0.776656 -0.510000 -0.564274
v 0.982956 -0.441673 -0.714159
v 1.133977 -0.255000 -0.823883
v 0.454255 0.000000 -1.398053
v 0.433141 0.255000 -1.333070
v 0.375456 0.441673 -1.155534
v 0.296657 0.510000 -0.913014
v 0.217857 0.441673 -0.670495
v 0.160172 0.255000 -0.492959
v 0.139058 0.000000 -0.427976
v 0.160172 -0.255000 -0.492959
v 0.217857 -0.441673 -0.670495
v 0.296657 -0.510000 -0.913014
v 0.375456 -0.441673 -1.155534
v 0.433141 -0.255000 -1.333070
v -0.454255 0.000000 -1.398053
v -0.433141 0.255000 -1.333070
v -0.375456 0.441673 -1.155534
v -0.296656 0.510000 -0.913014
v -0.217857 0.441673 -0.670495
v -0.160172 0.255000 -0.492959
v -0.139058 0.000000 -0.427976
v -0.160172 -0.255000 -0.492959
v -0.217857 -0.441673 -0.670495
v -0.296656 -0.510000 -0.913014
v -0.375456 -0.441673 -1.155534
v -0.433141 -0.255000 -1.333070
v -1.189255 0.000000 -0.864044
v -1.133977 0.255000 -0.823882
v -0.982956 0.441673 -0.714159
v -0.776657 0.510000 -0.564274
v -0.570357 0.441673 -0.414389
v -0.419336 0.255000 -0.304665
v -0.364058 0.000000 -0.264503
v -0.419336 -0.255000 -0.304665
v -0.570357 -0.441673 -0.414389
v -0.776657 -0.510000 -0.564274
v -0.982956 -0.441673 -0.714159
v -1.133977 -0.255000 -0.823882
v -1.470000 0.000000 -0.000000
v -1.401673 0.255000 -0.000000
v -1.215000 0.441673 -0.000000
v -0.960000 0.510000 -0.000000
v -0.705000 0.441673 -0.000000
v -0.518327 0.255000 -0.000000
v -0.450000 0.000000 -0.000000
v -0.518327 -0.255000 -0.000000
v -0.705000 -0.441673 -0.000000
v -0.960000 -0.510000 -0.000000
v -1.215000 -0.441673 -0.000000
v -1.401673 -0.255000 -0.000000
v -1.189255 0.000000 0.864044
v -1.133977 0.255000 0.823882
v -0.982956 0.441673 0.714159
v -0.776657 0.510000 0.564274
v -0.570357 0.441673 0.414389
v -0.419336 0.255000 0.304665
v -0.364058 0.000000 0.264503
v -0.419336 -0.255000 0.304665
v -0.570357 -0.441673 0.414389
v -0.776657 -0.510000 0.564274
v -0.982956 -0.441673 0.714159
v -1.133977 -0.255000 0.823882
v -0.454255 0.000000 1.398053
v -0.433141 0.255000 1.333070
v -0.375456 0.441673 1.155534
v -0.296656 0.510000 0.913014
v -0.217857 0.441673 0.670495
v -0.160172 0.255000 0.492959
v -0.139058 0.000000 0.427976
v -0.160172 -0.255000 0.492959
v -0.217857 -0.441673 0.670495
v -0.296656 -0.510000 0.913014
v -0.375456 -0.441673 1.155534
v -0.433141 -0.255000 1.333070
v 0.454255 0.000000 1.398053
v 0.433141 0.255000 1.333070
v 0.375456 0.441673 1.155534
v 0.296657 0.510000 0.913014
v 0.217857 0.441673 0.670495
v 0.160172 0.255000 0.492959
v 0.139058 0.000000 0.427976
v 0.160172 -0.255000 0.492959
v 0.217857 -0.441673 0.670495
v 0.296657 -0.510000 0.913014
v 0.375456 -0.441673 1.155534
v 0.433141 -0.255000 1.333070
v 1.189254 0.000000 0.864045
v 1.133977 0.255000 0.823883
v 0.982955 0.441673 0.714160
v 0.776656 0.510000 0.564274
v 0.570357 0.441673 0.414389
v 0.419335 0.255000 0.304665
v 0.364058 0.000000 0.264504
v 0.419335 -0.255000 0.304665
v 0.570357 -0.441673 0.414389
v 0.776656 -0.510000 0.564274
v 0.982955 -0.441673 0.714160
v 1.133977 -0.255000 0.823883
vt 0.600000 0.500000
vt 0.700000 0.583333
vt 0.600000 0.583333
vt 0.600000 0.666667
vt 0.700000 0.666667
vt 0.600000 0.750000
vt 0.700000 0.750000
vt 0.600000 0.833333
vt 0.700000 0.833333
vt 0.600000 0.916667
vt 0.700000 0.916667
vt 0.600000 1.000000
vt 0.700000 0.000000
vt 0.600000 0.083333
vt 0.600000 0.000000
vt 0.700000 0.083333
vt 0.600000 0.166667
vt 0.700000 0.166667
vt 0.600000 0.250000
vt 0.700000 0.250000
vt 0.600000 0.333333
vt 0.700000 0.333333
vt 0.600000 0.416667
vt 0.700000 0.416667
vt 0.800000 0.500000
vt 0.700000 0.500000
vt 0.800000 0.583333
vt 0.800000 0.750000
vt 0.800000 0.833333
vt 0.800000 0.916667
vt 0.700000 1.000000
vt 0.800000 0.000000
vt 0.800000 0.083333
vt 0.800000 0.166667
vt 0.800000 0.250000
vt 0.800000 0.333333
vt 0.800000 0.416667
vt 0.900000 0.500000
vt 0.900000 0.583333
vt 0.800000 0.666667
vt 0.900000 0.666667
vt 0.900000 0.750000
vt 0.900000 0.833333
vt 0.900000 0.916667
vt 0.800000 1.000000
vt 0.900000 0.000000
vt 0.900000 0.083333
vt 0.900000 0.166667
vt 0.900000 0.250000
vt 0.900000 0.333333
vt 0.900000 0.416667
vt 1.000000 0.500000
vt 1.000000 0.666667
vt 1.000000 0.750000
vt 1.000000 0.833333
vt 1.000000 1.000000
vt 0.900000 1.000000
vt 1.000000 0.000000
vt 1.000000 0.083333
vt 1.000000 0.166667
vt 1.000000 0.250000
vt 1.000000 0.416667
vt 0.100000 0.500000
vt -0.000000 0.583333
vt -0.000000 0.500000
vt 0.100000 0.583333
vt -0.000000 0.666667
vt 0.100000 0.750000
vt -0.000000 0.750000
vt -0.000000 0.833333
vt 0.100000 0.833333
vt -0.000000 0.916667
vt 0.100000 0.916667
vt -0.000000 1.000000
vt 0.100000 0.000000
vt -0.000000 0.083333
vt -0.000000 0.000000
vt 0.100000 0.083333
vt -0.000000 0.166667
vt 0.100000 0.250000
vt -0.000000 0.250000
vt -0.000000 0.333333
vt 0.100000 0.416667
vt -0.000000 0.416667
vt 0.200000 0.583333
vt 0.100000 0.666667
vt 0.200000 0.666667
vt 0.200000 0.750000
vt 0.200000 0.833333
vt 0.200000 0.916667
vt 0.100000 1.000000
vt 0.200000 0.000000
vt 0.200000 0.166667
vt 0.100000 0.166667
vt 0.200000 0.250000
vt 0.100000 0.333333
vt 0.200000 0.333333
vt 0.200000 0.416667
vt 0.200000 0.500000
vt 0.300000 0.583333
vt 0.300000 0.666667
vt 0.300000 0.750000
vt 0.300000 0.833333
vt 0.300000 0.916667
vt 0.200000 1.000000
vt 0.300000 0.000000
vt 0.200000 0.083333
vt 0.300000 0.083333
vt 0.300000 0.166667
vt 0.300000 0.333333
vt 0.300000 0.416667
vt 0.400000 0.500000
vt 0.300000 0.500000
vt 0.400000 0.583333
vt 0.400000 0.666667
vt 0.400000 0.750000
vt 0.400000 0.833333
vt 0.400000 0.916667
vt 0.300000 1.000000
vt 0.400000 0.000000
vt 0.400000 0.083333
vt 0.400000 0.166667
vt 0.300000 0.250000
vt 0.400000 0.250000
vt 0.400000 0.333333
vt 0.400000 0.416667
vt 0.500000 0.500000
vt 0.500000 0.666667
vt 0.500000 0.750000
vt 0.500000 0.833333
vt 0.500000 0.916667
vt 0.400000 1.000000
vt 0.500000 0.000000
vt 0.500000 0.083333
vt 0.500000 0.166667
vt 0.500000 0.333333
vt 0.500000 0.583333
vt 0.500000 1.000000
vt 0.500000 0.250000
vt 0.500000 0.416667
vt 1.000000 0.583333
vt 1.000000 0.916667
vt 1.000000 0.333333
vn 0.9216 0.2469 -0.2994
vn 0.6892 0.6892 -0.2239
vn 0.2579 0.9625 -0.0838
vn -0.2579 0.9625 0.0838
vn -0.6892 0.6892 0.2239
vn -0.9216 0.2469 0.2994
vn -0.9216 -0.2469 0.2994
vn -0.6892 -0.6892 0.2239
vn -0.2579 -0.9625 0.0838
vn 0.2579 -0.9625 -0.0838
vn 0.6892 -0.6892 -0.2239
vn 0.9216 -0.2469 -0.2994
vn 0.5696 0.2469 -0.7840
vn 0.4259 0.6892 -0.5862
vn 0.1594 0.9625 -0.2194
vn -0.1594 0.9625 0.2194
vn -0.4259 0.6892 0.5862
vn -0.5696 0.2469 0.7840
vn -0.5696 -0.2469 0.7840
vn -0.4259 -0.6892 0.5862
vn -0.1594 -0.9625 0.2194
vn 0.1594 -0.9625 -0.2194
vn 0.4259 -0.6892 -0.5862
vn 0.5696 -0.2469 -0.7840
vn 0.0000 0.2469 -0.9690
vn 0.0000 0.6892 -0.7246
vn 0.0000 0.9625 -0.2712
vn 0.0000 0.9625 0.2712
vn 0.0000 0.6892 0.7246
vn 0.0000 0.2469 0.9690
vn 0.0000 -0.2469 0.9690
vn 0.0000 -0.6892 0.7246
vn 0.0000 -0.9625 0.2712
vn 0.0000 -0.9625 -0.2712
vn 0.0000 -0.6892 -0.7246
vn 0.0000 -0.2469 -0.9690
vn -0.5696 0.2469 -0.7840
vn -0.4259 0.6892 -0.5862
vn -0.1594 0.9625 -0.2194
vn 0.1594 0.9625 0.2194
vn 0.4259 0.6892 0.5862
vn 0.5696 0.2469 0.7840
vn 0.5696 -0.2469 0.7840
vn 0.4259 -0.6892 0.5862
vn 0.1594 -0.9625 0.2194
vn -0.1594 -0.9625 -0.2194
vn -0.4259 -0.6892 -0.5862
vn -0.5696 -0.2469 -0.7840
vn -0.9216 0.2469 -0.2994
vn -0.6892 0.6892 -0.2239
vn -0.2579 0.9625 -0.0838
vn 0.2579 0.9625 0.0838
vn 0.6892 0.6892 0.2239
vn 0.9216 0.2469 0.2994
vn 0.9216 -0.2469 0.2994
vn 0.6892 -0.6892 0.2239
vn 0.2579 -0.9625 0.0838
vn -0.2579 -0.9625 -0.0838
vn -0.6892 -0.6892 -0.2239
vn -0.9216 -0.2469 -0.2994
usemtl None
s off
f 1/1/1 14/2/1 2/3/1
f 14/2/2 3/4/2 2/3/2
f 15/5/3 4/6/3 3/4/3
f 16/7/4 5/8/4 4/6/4
f 17/9/5 6/10/5 5/8/5
f 18/11/6 7/12/6 6/10/6
f 19/13/7 8/14/7 7/15/7
f 20/16/8 9/17/8 8/14/8
f 21/18/9 10/19/9 9/17/9
f 22/20/10 11/21/10 10/19/10
f 23/22/11 12/23/11 11/21/11
f 24/24/12 1/1/12 12/23/12
f 25/25/13 14/2/13 13/26/13
f 26/27/14 15/5/14 14/2/14
f 15/5/15 28/28/15 16/7/15
f 28/28/16 17/9/16 16/7/16
f 29/29/17 18/11/17 17/9/17
f 30/30/18 19/31/18 18/11/18
f 31/32/19 20/16/19 19/13/19
f 32/33/20 21/18/20 20/16/20
f 33/34/21 22/20/21 21/18/21
f 34/35/22 23/22/22 22/20/22
f 35/36/23 24/24/23 23/22/23
f 36/37/24 13/26/24 24/24/24
f 37/38/25 26/27/25 25/25/25
f 38/39/26 27/40/26 26/27/26
f 39/41/27 28/28/27 27/40/27
f 40/42/28 29/29/28 28/28/28
f 41/43/29 30/30/29 29/29/29
f 42/44/30 31/45/30 30/30/30
f 43/46/31 32/33/31 31/32/31
f 44/47/32 33/34/32 32/33/32
f 45/48/33 34/35/33 33/34/33
f 46/49/34 35/36/34 34/35/34
f 47/50/35 36/37/35 35/36/35
f 48/51/36 25/25/36 36/37/36
f 49/52/37 38/39/37 37/38/37
f 38/39/38 51/53/38 39/41/38
f 39/41/39 52/54/39 40/42/39
f 52/54/40 41/43/40 40/42/40
f 53/55/41 42/44/41 41/43/41
f 42/44/42 55/56/42 43/57/42
f 55/58/43 44/47/43 43/46/43
f 56/59/44 45/48/44 44/47/44
f 57/60/45 46/49/45 45/48/45
f 58/61/46 47/50/46 46/49/46
f 47/50/47 60/62/47 48/51/47
f 60/62/48 37/38/48 48/51/48
f 61/63/49 50/64/49 49/65/49
f 62/66/50 51/67/50 50/64/50
f 51/67/51 64/68/51 52/69/51
f 64/68/52 53/70/52 52/69/52
f 65/71/53 54/72/53 53/70/53
f 66/73/54 55/74/54 54/72/54
f 67/75/55 56/76/55 55/77/55
f 68/78/56 57/79/56 56/76/56
f 57/79/57 70/80/57 58/81/57
f 70/80/58 59/82/58 58/81/58
f 59/82/59 72/83/59 60/84/59
f 72/83/60 49/65/60 60/84/60
f 61/63/6 74/85/6 62/66/6
f 74/85/5 63/86/5 62/66/5
f 75/87/4 64/68/4 63/86/4
f 76/88/3 65/71/3 64/68/3
f 77/89/2 66/73/2 65/71/2
f 78/90/1 67/91/1 66/73/1
f 79/92/12 68/78/12 67/75/12
f 68/78/11 81/93/11 69/94/11
f 81/93/10 70/80/10 69/94/10
f 82/95/9 71/96/9 70/80/9
f 83/97/8 72/83/8 71/96/8
f 84/98/7 61/63/7 72/83/7
f 73/99/18 86/100/18 74/85/18
f 74/85/17 87/101/17 75/87/17
f 87/101/16 76/88/16 75/87/16
f 88/102/15 77/89/15 76/88/15
f 89/103/14 78/90/14 77/89/14
f 90/104/13 79/105/13 78/90/13
f 91/106/24 80/107/24 79/92/24
f 92/108/23 81/93/23 80/107/23
f 93/109/22 82/95/22 81/93/22
f 82/95/21 95/110/21 83/97/21
f 83/97/20 96/111/20 84/98/20
f 96/111/19 73/99/19 84/98/19
f 97/112/30 86/100/30 85/113/30
f 98/114/29 87/101/29 86/100/29
f 99/115/28 88/102/28 87/101/28
f 100/116/27 89/103/27 88/102/27
f 101/117/26 90/104/26 89/103/26
f 102/118/25 91/119/25 90/104/25
f 103/120/36 92/108/36 91/106/36
f 104/121/35 93/109/35 92/108/35
f 105/122/34 94/123/34 93/109/34
f 106/124/33 95/110/33 94/123/33
f 107/125/32 96/111/32 95/110/32
f 108/126/31 85/113/31 96/111/31
f 109/127/42 98/114/42 97/112/42
f 98/114/41 111/128/41 99/115/41
f 111/128/40 100/116/40 99/115/40
f 112/129/39 101/117/39 100/116/39
f 113/130/38 102/118/38 101/117/38
f 114/131/37 103/132/37 102/118/37
f 115/133/48 104/121/48 103/120/48
f 116/134/47 105/122/47 104/121/47
f 117/135/46 106/124/46 105/122/46
f 106/124/45 119/136/45 107/125/45
f 119/136/44 108/126/44 107/125/44
f 108/126/43 109/127/43 97/112/43
f 1/1/54 110/137/54 109/127/54
f 2/3/53 111/128/53 110/137/53
f 3/4/52 112/129/52 111/128/52
f 4/6/51 113/130/51 112/129/51
f 5/8/50 114/131/50 113/130/50
f 6/10/49 115/138/49 114/131/49
f 7/15/60 116/134/60 115/133/60
f 8/14/59 117/135/59 116/134/59
f 9/17/58 118/139/58 117/135/58
f 10/19/57 119/136/57 118/139/57
f 11/21/56 120/140/56 119/136/56
f 120/140/55 1/1/55 109/127/55
f 1/1/1 13/26/1 14/2/1
f 14/2/2 15/5/2 3/4/2
f 15/5/3 16/7/3 4/6/3
f 16/7/4 17/9/4 5/8/4
f 17/9/5 18/11/5 6/10/5
f 18/11/6 19/31/6 7/12/6
f 19/13/7 20/16/7 8/14/7
f 20/16/8 21/18/8 9/17/8
f 21/18/9 22/20/9 10/19/9
f 22/20/10 23/22/10 11/21/10
f 23/22/11 24/24/11 12/23/11
f 24/24/12 13/26/12 1/1/12
f 25/25/13 26/27/13 14/2/13
f 26/27/14 27/40/14 15/5/14
f 15/5/15 27/40/15 28/28/15
f 28/28/16 29/29/16 17/9/16
f 29/29/17 30/30/17 18/11/17
f 30/30/18 31/45/18 19/31/18
f 31/32/19 32/33/19 20/16/19
f 32/33/20 33/34/20 21/18/20
f 33/34/21 34/35/21 22/20/21
f 34/35/22 35/36/22 23/22/22
f 35/36/23 36/37/23 24/24/23
f 36/37/24 25/25/24 13/26/24
f 37/38/25 38/39/25 26/27/25
f 38/39/26 39/41/26 27/40/26
f 39/41/27 40/42/27 28/28/27
f 40/42/28 41/43/28 29/29/28
f 41/43/29 42/44/29 30/30/29
f 42/44/30 43/57/30 31/45/30
f 43/46/31 44/47/31 32/33/31
f 44/47/32 45/48/32 33/34/32
f 45/48/33 46/49/33 34/35/33
f 46/49/34 47/50/34 35/36/34
f 47/50/35 48/51/35 36/37/35
f 48/51/36 37/38/36 25/25/36
f 49/52/37 50/141/37 38/39/37
f 38/39/38 50/141/38 51/53/38
f 39/41/39 51/53/39 52/54/39
f 52/54/40 53/55/40 41/43/40
f 53/55/41 54/142/41 42/44/41
f 42/44/42 54/142/42 55/56/42
f 55/58/43 56/59/43 44/47/43
f 56/59/44 57/60/44 45/48/44
f 57/60/45 58/61/45 46/49/45
f 58/61/46 59/143/46 47/50/46
f 47/50/47 59/143/47 60/62/47
f 60/62/48 49/52/48 37/38/48
f 61/63/49 62/66/49 50/64/49
f 62/66/50 63/86/50 51/67/50
f 51/67/51 63/86/51 64/68/51
f 64/68/52 65/71/52 53/70/52
f 65/71/53 66/73/53 54/72/53
f 66/73/54 67/91/54 55/74/54
f 67/75/55 68/78/55 56/76/55
f 68/78/56 69/94/56 57/79/56
f 57/79/57 69/94/57 70/80/57
f 70/80/58 71/96/58 59/82/58
f 59/82/59 71/96/59 72/83/59
f 72/83/60 61/63/60 49/65/60
f 61/63/6 73/99/6 74/85/6
f 74/85/5 75/87/5 63/86/5
f 75/87/4 76/88/4 64/68/4
f 76/88/3 77/89/3 65/71/3
f 77/89/2 78/90/2 66/73/2
f 78/90/1 79/105/1 67/91/1
f 79/92/12 80/107/12 68/78/12
f 68/78/11 80/107/11 81/93/11
f 81/93/10 82/95/10 70/80/10
f 82/95/9 83/97/9 71/96/9
f 83/97/8 84/98/8 72/83/8
f 84/98/7 73/99/7 61/63/7
f 73/99/18 85/113/18 86/100/18
f 74/85/17 86/100/17 87/101/17
f 87/101/16 88/102/16 76/88/16
f 88/102/15 89/103/15 77/89/15
f 89/103/14 90/104/14 78/90/14
f 90/104/13 91/119/13 79/105/13
f 91/106/24 92/108/24 80/107/24
f 92/108/23 93/109/23 81/93/23
f 93/109/22 94/123/22 82/95/22
f 82/95/21 94/123/21 95/110/21
f 83/97/20 95/110/20 96/111/20
f 96/111/19 85/113/19 73/99/19
f 97/112/30 98/114/30 86/100/30
f 98/114/29 99/115/29 87/101/29
f 99/115/28 100/116/28 88/102/28
f 100/116/27 101/117/27 89/103/27
f 101/117/26 102/118/26 90/104/26
f 102/118/25 103/132/25 91/119/25
f 103/120/36 104/121/36 92/108/36
f 104/121/35 105/122/35 93/109/35
f 105/122/34 106/124/34 94/123/34
f 106/124/33 107/125/33 95/110/33
f 107/125/32 108/126/32 96/111/32
f 108/126/31 97/112/31 85/113/31
f 109/127/42 110/137/42 98/114/42
f 98/114/41 110/137/41 111/128/41
f 111/128/40 112/129/40 100/116/40
f 112/129/39 113/130/39 101/117/39
f 113/130/38 114/131/38 102/118/38
f 114/131/37 115/138/37 103/132/37
f 115/133/48 116/134/48 104/121/48
f 116/134/47 117/135/47 105/122/47
f 117/135/46 118/139/46 106/124/46
f 106/124/45 118/139/45 119/136/45
f 119/136/44 120/140/44 108/126/44
f 108/126/43 120/140/43 109/127/43
f 1/1/54 2/3/54 110/137/54
f 2/3/53 3/4/53 111/128/53
f 3/4/52 4/6/52 112/129/52
f 4/6/51 5/8/51 113/130/51
f 5/8/50 6/10/50 114/131/50
f 6/10/49 7/12/49 115/138/49
f 7/15/60 8/14/60 116/134/60
f 8/14/59 9/17/59 117/135/59
f 9/17/58 10/19/58 118/139/58
f 10/19/57 11/21/57 119/136/57
f 11/21/56 12/23/56 120/140/56
f 120/140/55 12/23/55 1/1/55
